<svg xmlns="http://www.w3.org/2000/svg" xmlns:xlink="http://www.w3.org/1999/xlink" width="300" zoomAndPan="magnify" viewBox="0 0 375 370.999991" height="300" preserveAspectRatio="xMidYMid meet" version="1.0"><defs><g/><clipPath id="4dc5fa6515"><path d="M 46.78125 113.859375 L 100.78125 113.859375 L 100.78125 167.859375 L 46.78125 167.859375 Z M 46.78125 113.859375 " clip-rule="nonzero"/></clipPath></defs><g fill="#3d3b3a" fill-opacity="1"><g transform="translate(105.952979, 160.05634)"><g><path d="M 15 0 C 14.925781 -0.257812 14.851562 -0.5 14.78125 -0.71875 C 14.707031 -0.945312 14.640625 -1.226562 14.578125 -1.5625 C 14.523438 -1.894531 14.488281 -2.316406 14.46875 -2.828125 C 14.445312 -3.347656 14.4375 -4 14.4375 -4.78125 L 14.4375 -10.890625 C 14.4375 -12.703125 14.117188 -13.976562 13.484375 -14.71875 C 12.859375 -15.457031 11.84375 -15.828125 10.4375 -15.828125 L 8.328125 -15.828125 L 8.328125 0 L 2.21875 0 L 2.21875 -38.875 L 11.4375 -38.875 C 14.625 -38.875 16.929688 -38.132812 18.359375 -36.65625 C 19.785156 -35.175781 20.5 -32.9375 20.5 -29.9375 L 20.5 -26.890625 C 20.5 -22.890625 19.164062 -20.257812 16.5 -19 C 18.050781 -18.363281 19.113281 -17.332031 19.6875 -15.90625 C 20.257812 -14.488281 20.546875 -12.757812 20.546875 -10.71875 L 20.546875 -4.71875 C 20.546875 -3.757812 20.582031 -2.914062 20.65625 -2.1875 C 20.738281 -1.46875 20.925781 -0.738281 21.21875 0 Z M 8.328125 -33.328125 L 8.328125 -21.390625 L 10.71875 -21.390625 C 11.863281 -21.390625 12.757812 -21.679688 13.40625 -22.265625 C 14.0625 -22.859375 14.390625 -23.9375 14.390625 -25.5 L 14.390625 -29.328125 C 14.390625 -30.734375 14.140625 -31.75 13.640625 -32.375 C 13.140625 -33.007812 12.351562 -33.328125 11.28125 -33.328125 Z M 8.328125 -33.328125 "/></g></g></g><g fill="#3d3b3a" fill-opacity="1"><g transform="translate(131.610975, 160.05634)"><g><path d="M 8.328125 -22.5 L 16.71875 -22.5 L 16.71875 -16.9375 L 8.328125 -16.9375 L 8.328125 -5.546875 L 18.890625 -5.546875 L 18.890625 0 L 2.21875 0 L 2.21875 -38.875 L 18.890625 -38.875 L 18.890625 -33.328125 L 8.328125 -33.328125 Z M 8.328125 -22.5 "/></g></g></g><g fill="#3d3b3a" fill-opacity="1"><g transform="translate(155.380775, 160.05634)"><g><path d="M 7.671875 -28.15625 L 7.671875 0 L 2.171875 0 L 2.171875 -38.875 L 9.828125 -38.875 L 16.109375 -15.609375 L 16.109375 -38.875 L 21.546875 -38.875 L 21.546875 0 L 15.28125 0 Z M 7.671875 -28.15625 "/></g></g></g><g fill="#3d3b3a" fill-opacity="1"><g transform="translate(182.427156, 160.05634)"><g><path d="M 0.4375 -38.875 L 19.328125 -38.875 L 19.328125 -33.328125 L 12.9375 -33.328125 L 12.9375 0 L 6.828125 0 L 6.828125 -33.328125 L 0.4375 -33.328125 Z M 0.4375 -38.875 "/></g></g></g><g fill="#3d3b3a" fill-opacity="1"><g transform="translate(205.530533, 160.05634)"><g/></g></g><g fill="#3d3b3a" fill-opacity="1"><g transform="translate(217.471354, 160.05634)"><g><path d="M 8.328125 0 L 2.21875 0 L 2.21875 -38.875 L 8.328125 -38.875 L 8.328125 -22.21875 L 15.28125 -22.21875 L 15.28125 -38.875 L 21.5 -38.875 L 21.5 0 L 15.28125 0 L 15.28125 -16.65625 L 8.328125 -16.65625 Z M 8.328125 0 "/></g></g></g><g fill="#3d3b3a" fill-opacity="1"><g transform="translate(244.517736, 160.05634)"><g><path d="M 7.828125 -8.9375 C 7.828125 -7.53125 8.113281 -6.539062 8.6875 -5.96875 C 9.257812 -5.394531 10.03125 -5.109375 11 -5.109375 C 11.957031 -5.109375 12.722656 -5.394531 13.296875 -5.96875 C 13.878906 -6.539062 14.171875 -7.53125 14.171875 -8.9375 L 14.171875 -29.9375 C 14.171875 -31.34375 13.878906 -32.332031 13.296875 -32.90625 C 12.722656 -33.476562 11.957031 -33.765625 11 -33.765625 C 10.03125 -33.765625 9.257812 -33.476562 8.6875 -32.90625 C 8.113281 -32.332031 7.828125 -31.34375 7.828125 -29.9375 Z M 1.71875 -29.546875 C 1.71875 -32.691406 2.515625 -35.109375 4.109375 -36.796875 C 5.703125 -38.484375 8 -39.328125 11 -39.328125 C 14 -39.328125 16.296875 -38.484375 17.890625 -36.796875 C 19.484375 -35.109375 20.28125 -32.691406 20.28125 -29.546875 L 20.28125 -9.328125 C 20.28125 -6.179688 19.484375 -3.765625 17.890625 -2.078125 C 16.296875 -0.398438 14 0.4375 11 0.4375 C 8 0.4375 5.703125 -0.398438 4.109375 -2.078125 C 2.515625 -3.765625 1.71875 -6.179688 1.71875 -9.328125 Z M 1.71875 -29.546875 "/></g></g></g><g fill="#3d3b3a" fill-opacity="1"><g transform="translate(269.842525, 160.05634)"><g><path d="M 8.046875 -38.875 L 8.046875 -8.890625 C 8.046875 -7.484375 8.332031 -6.5 8.90625 -5.9375 C 9.488281 -5.382812 10.257812 -5.109375 11.21875 -5.109375 C 12.1875 -5.109375 12.957031 -5.382812 13.53125 -5.9375 C 14.101562 -6.5 14.390625 -7.484375 14.390625 -8.890625 L 14.390625 -38.875 L 20.15625 -38.875 L 20.15625 -9.28125 C 20.15625 -6.132812 19.382812 -3.71875 17.84375 -2.03125 C 16.3125 -0.34375 14.046875 0.5 11.046875 0.5 C 8.046875 0.5 5.773438 -0.34375 4.234375 -2.03125 C 2.703125 -3.71875 1.9375 -6.132812 1.9375 -9.28125 L 1.9375 -38.875 Z M 8.046875 -38.875 "/></g></g></g><g fill="#3d3b3a" fill-opacity="1"><g transform="translate(295.278379, 160.05634)"><g><path d="M 1.4375 -29.546875 C 1.4375 -32.691406 2.1875 -35.109375 3.6875 -36.796875 C 5.1875 -38.484375 7.4375 -39.328125 10.4375 -39.328125 C 13.4375 -39.328125 15.6875 -38.484375 17.1875 -36.796875 C 18.6875 -35.109375 19.4375 -32.691406 19.4375 -29.546875 L 19.4375 -28.328125 L 13.671875 -28.328125 L 13.671875 -29.9375 C 13.671875 -31.34375 13.398438 -32.332031 12.859375 -32.90625 C 12.316406 -33.476562 11.566406 -33.765625 10.609375 -33.765625 C 9.648438 -33.765625 8.898438 -33.476562 8.359375 -32.90625 C 7.816406 -32.332031 7.546875 -31.34375 7.546875 -29.9375 C 7.546875 -28.601562 7.84375 -27.425781 8.4375 -26.40625 C 9.03125 -25.394531 9.769531 -24.429688 10.65625 -23.515625 C 11.550781 -22.609375 12.503906 -21.703125 13.515625 -20.796875 C 14.535156 -19.890625 15.488281 -18.898438 16.375 -17.828125 C 17.269531 -16.753906 18.015625 -15.53125 18.609375 -14.15625 C 19.203125 -12.789062 19.5 -11.179688 19.5 -9.328125 C 19.5 -6.179688 18.726562 -3.765625 17.1875 -2.078125 C 15.65625 -0.398438 13.390625 0.4375 10.390625 0.4375 C 7.390625 0.4375 5.117188 -0.398438 3.578125 -2.078125 C 2.046875 -3.765625 1.28125 -6.179688 1.28125 -9.328125 L 1.28125 -11.71875 L 7.046875 -11.71875 L 7.046875 -8.9375 C 7.046875 -7.53125 7.332031 -6.550781 7.90625 -6 C 8.488281 -5.445312 9.257812 -5.171875 10.21875 -5.171875 C 11.1875 -5.171875 11.957031 -5.445312 12.53125 -6 C 13.101562 -6.550781 13.390625 -7.53125 13.390625 -8.9375 C 13.390625 -10.269531 13.09375 -11.445312 12.5 -12.46875 C 11.90625 -13.488281 11.160156 -14.453125 10.265625 -15.359375 C 9.378906 -16.265625 8.425781 -17.171875 7.40625 -18.078125 C 6.394531 -18.984375 5.441406 -19.972656 4.546875 -21.046875 C 3.660156 -22.117188 2.921875 -23.34375 2.328125 -24.71875 C 1.734375 -26.09375 1.4375 -27.703125 1.4375 -29.546875 Z M 1.4375 -29.546875 "/></g></g></g><g fill="#3d3b3a" fill-opacity="1"><g transform="translate(319.381385, 160.05634)"><g><path d="M 8.328125 -22.5 L 16.71875 -22.5 L 16.71875 -16.9375 L 8.328125 -16.9375 L 8.328125 -5.546875 L 18.890625 -5.546875 L 18.890625 0 L 2.21875 0 L 2.21875 -38.875 L 18.890625 -38.875 L 18.890625 -33.328125 L 8.328125 -33.328125 Z M 8.328125 -22.5 "/></g></g></g><g clip-path="url(#4dc5fa6515)"><path fill="#ffbd59" d="M 73.699219 113.859375 C 58.832031 113.859375 46.78125 125.914062 46.78125 140.777344 C 46.78125 155.644531 58.832031 167.695312 73.699219 167.695312 C 88.5625 167.695312 100.617188 155.644531 100.617188 140.777344 C 100.617188 125.914062 88.5625 113.859375 73.699219 113.859375 Z M 87.441406 156.011719 C 87.441406 156.328125 87.382812 156.628906 87.261719 156.917969 C 87.140625 157.207031 86.972656 157.464844 86.75 157.6875 C 86.527344 157.910156 86.273438 158.082031 85.984375 158.203125 C 85.695312 158.324219 85.394531 158.386719 85.078125 158.386719 L 79.3125 158.417969 C 79 158.417969 78.695312 158.359375 78.402344 158.238281 C 78.109375 158.121094 77.851562 157.949219 77.628906 157.726562 C 77.402344 157.503906 77.230469 157.246094 77.109375 156.953125 C 76.988281 156.660156 76.925781 156.359375 76.925781 156.042969 L 76.925781 148.601562 C 76.929688 148.289062 76.867188 147.984375 76.746094 147.695312 C 76.609375 147.363281 76.429688 147.0625 76.199219 146.789062 C 75.96875 146.515625 75.703125 146.28125 75.402344 146.089844 C 75.101562 145.898438 74.777344 145.757812 74.429688 145.664062 C 74.085938 145.574219 73.734375 145.535156 73.378906 145.550781 C 73.019531 145.570312 72.675781 145.640625 72.339844 145.761719 C 72.003906 145.886719 71.695312 146.058594 71.414062 146.277344 C 71.132812 146.496094 70.886719 146.75 70.683594 147.042969 C 70.480469 147.339844 70.328125 147.65625 70.222656 147.996094 C 70.152344 148.222656 70.117188 148.453125 70.117188 148.6875 L 70.117188 155.90625 C 70.117188 156.21875 70.058594 156.523438 69.9375 156.8125 C 69.820312 157.101562 69.648438 157.359375 69.425781 157.582031 C 69.207031 157.804688 68.949219 157.976562 68.660156 158.097656 C 68.371094 158.21875 68.070312 158.277344 67.757812 158.28125 L 61.996094 158.308594 C 61.679688 158.3125 61.375 158.25 61.085938 158.128906 C 60.792969 158.011719 60.53125 157.839844 60.308594 157.613281 C 60.085938 157.390625 59.914062 157.132812 59.792969 156.839844 C 59.671875 156.546875 59.609375 156.242188 59.613281 155.925781 C 59.625 151.902344 59.640625 147.878906 59.652344 143.855469 C 59.65625 143.164062 59.914062 142.585938 60.421875 142.117188 L 71.953125 131.519531 C 72.171875 131.320312 72.417969 131.164062 72.695312 131.058594 C 72.96875 130.949219 73.257812 130.894531 73.554688 130.894531 C 73.851562 130.894531 74.136719 130.949219 74.414062 131.054688 C 74.691406 131.160156 74.9375 131.3125 75.15625 131.515625 C 78.992188 135.011719 82.828125 138.511719 86.664062 142.011719 C 87.179688 142.480469 87.441406 143.0625 87.441406 143.761719 Z M 91.078125 143.449219 L 91.074219 143.449219 C 90.460938 143.449219 89.9375 143.234375 89.507812 142.800781 L 75.109375 128.402344 C 74.902344 128.195312 74.660156 128.035156 74.390625 127.921875 C 74.117188 127.808594 73.835938 127.753906 73.539062 127.753906 C 73.246094 127.753906 72.964844 127.808594 72.691406 127.921875 C 72.421875 128.035156 72.179688 128.195312 71.972656 128.402344 L 57.550781 142.804688 C 57.117188 143.234375 56.597656 143.449219 55.984375 143.449219 C 54.015625 143.449219 53.023438 141.070312 54.417969 139.671875 L 72.015625 122.007812 C 72.222656 121.800781 72.460938 121.636719 72.734375 121.523438 C 73.007812 121.410156 73.289062 121.355469 73.585938 121.355469 C 73.878906 121.355469 74.164062 121.410156 74.4375 121.523438 C 74.707031 121.636719 74.949219 121.800781 75.15625 122.007812 L 81.859375 128.777344 L 81.859375 125.074219 C 81.859375 124.851562 81.902344 124.640625 81.988281 124.433594 C 82.070312 124.230469 82.191406 124.050781 82.347656 123.890625 C 82.503906 123.734375 82.6875 123.613281 82.890625 123.53125 C 83.09375 123.445312 83.308594 123.402344 83.53125 123.402344 L 84.628906 123.402344 C 84.851562 123.402344 85.066406 123.445312 85.269531 123.53125 C 85.476562 123.613281 85.65625 123.734375 85.8125 123.890625 C 85.96875 124.046875 86.089844 124.230469 86.175781 124.433594 C 86.257812 124.640625 86.300781 124.851562 86.300781 125.074219 L 86.300781 133.265625 L 92.652344 139.675781 C 94.035156 141.074219 93.046875 143.449219 91.078125 143.449219 Z M 91.078125 143.449219 " fill-opacity="1" fill-rule="nonzero"/></g><g fill="#3d3b3a" fill-opacity="1"><g transform="translate(146.119462, 180.599974)"><g><path d="M 6.078125 -5.921875 C 5.859375 -5.921875 5.640625 -5.820312 5.421875 -5.625 C 5.210938 -5.4375 5.003906 -5.171875 4.796875 -4.828125 C 4.597656 -4.484375 4.390625 -4.078125 4.171875 -3.609375 C 3.890625 -2.984375 3.640625 -2.347656 3.421875 -1.703125 C 3.203125 -1.054688 3.035156 -0.488281 2.921875 0 L 0.578125 0 C 0.742188 -0.488281 0.914062 -1.039062 1.09375 -1.65625 C 1.269531 -2.269531 1.4375 -2.878906 1.59375 -3.484375 C 1.75 -4.097656 1.875 -4.65625 1.96875 -5.15625 C 2.0625 -5.664062 2.109375 -6.050781 2.109375 -6.3125 C 1.890625 -6.164062 1.664062 -5.976562 1.4375 -5.75 C 1.207031 -5.53125 0.972656 -5.25 0.734375 -4.90625 L 0.1875 -5.609375 C 0.488281 -6.003906 0.828125 -6.375 1.203125 -6.71875 C 1.578125 -7.070312 1.957031 -7.347656 2.34375 -7.546875 C 2.726562 -7.753906 3.085938 -7.859375 3.421875 -7.859375 C 3.679688 -7.859375 3.875 -7.785156 4 -7.640625 C 4.132812 -7.503906 4.203125 -7.269531 4.203125 -6.9375 C 4.203125 -6.769531 4.160156 -6.460938 4.078125 -6.015625 C 4.003906 -5.566406 3.875 -4.992188 3.6875 -4.296875 C 3.5 -3.609375 3.234375 -2.800781 2.890625 -1.875 L 2.8125 -1.875 C 3.101562 -2.675781 3.390625 -3.4375 3.671875 -4.15625 C 3.960938 -4.875 4.257812 -5.507812 4.5625 -6.0625 C 4.875 -6.625 5.203125 -7.0625 5.546875 -7.375 C 5.890625 -7.695312 6.273438 -7.859375 6.703125 -7.859375 C 7.015625 -7.859375 7.253906 -7.769531 7.421875 -7.59375 C 7.585938 -7.425781 7.671875 -7.191406 7.671875 -6.890625 C 7.671875 -6.660156 7.613281 -6.414062 7.5 -6.15625 C 7.394531 -5.894531 7.242188 -5.660156 7.046875 -5.453125 C 6.910156 -5.585938 6.753906 -5.695312 6.578125 -5.78125 C 6.398438 -5.875 6.234375 -5.921875 6.078125 -5.921875 Z M 6.078125 -5.921875 "/></g></g></g><g fill="#3d3b3a" fill-opacity="1"><g transform="translate(157.044753, 180.599974)"><g><path d="M 3.359375 0.140625 C 2.460938 0.140625 1.753906 -0.109375 1.234375 -0.609375 C 0.710938 -1.109375 0.453125 -1.785156 0.453125 -2.640625 C 0.453125 -3.335938 0.578125 -4 0.828125 -4.625 C 1.085938 -5.257812 1.429688 -5.816406 1.859375 -6.296875 C 2.296875 -6.785156 2.800781 -7.164062 3.375 -7.4375 C 3.945312 -7.71875 4.550781 -7.859375 5.1875 -7.859375 C 5.863281 -7.859375 6.378906 -7.71875 6.734375 -7.4375 C 7.085938 -7.164062 7.265625 -6.8125 7.265625 -6.375 C 7.265625 -6.132812 7.195312 -5.878906 7.0625 -5.609375 C 6.925781 -5.335938 6.6875 -5.054688 6.34375 -4.765625 C 6.007812 -4.484375 5.535156 -4.179688 4.921875 -3.859375 C 4.316406 -3.535156 3.53125 -3.203125 2.5625 -2.859375 L 2.5625 -3.796875 C 3.207031 -4.054688 3.71875 -4.320312 4.09375 -4.59375 C 4.46875 -4.863281 4.726562 -5.140625 4.875 -5.421875 C 5.03125 -5.703125 5.109375 -5.988281 5.109375 -6.28125 C 5.109375 -6.46875 5.054688 -6.613281 4.953125 -6.71875 C 4.847656 -6.832031 4.710938 -6.890625 4.546875 -6.890625 C 4.285156 -6.890625 4.019531 -6.726562 3.75 -6.40625 C 3.476562 -6.09375 3.253906 -5.65625 3.078125 -5.09375 C 2.898438 -4.53125 2.8125 -3.875 2.8125 -3.125 C 2.8125 -2.570312 2.925781 -2.160156 3.15625 -1.890625 C 3.394531 -1.628906 3.707031 -1.5 4.09375 -1.5 C 4.382812 -1.5 4.738281 -1.582031 5.15625 -1.75 C 5.582031 -1.925781 5.988281 -2.25 6.375 -2.71875 L 6.90625 -1.9375 C 6.382812 -1.21875 5.800781 -0.691406 5.15625 -0.359375 C 4.507812 -0.0234375 3.910156 0.140625 3.359375 0.140625 Z M 3.359375 0.140625 "/></g></g></g><g fill="#3d3b3a" fill-opacity="1"><g transform="translate(168.057876, 180.599974)"><g><path d="M 2.046875 0.140625 C 1.535156 0.140625 1.128906 -0.046875 0.828125 -0.421875 C 0.523438 -0.796875 0.375 -1.273438 0.375 -1.859375 C 0.375 -2.691406 0.523438 -3.472656 0.828125 -4.203125 C 1.140625 -4.929688 1.546875 -5.566406 2.046875 -6.109375 C 2.554688 -6.660156 3.113281 -7.09375 3.71875 -7.40625 C 4.320312 -7.71875 4.910156 -7.875 5.484375 -7.875 C 5.847656 -7.875 6.160156 -7.773438 6.421875 -7.578125 C 6.691406 -7.378906 6.957031 -7.101562 7.21875 -6.75 L 6.609375 -6.1875 C 6.421875 -6.363281 6.207031 -6.492188 5.96875 -6.578125 C 5.738281 -6.660156 5.5 -6.703125 5.25 -6.703125 C 4.914062 -6.703125 4.59375 -6.59375 4.28125 -6.375 C 3.976562 -6.15625 3.710938 -5.847656 3.484375 -5.453125 C 3.253906 -5.066406 3.078125 -4.613281 2.953125 -4.09375 C 2.835938 -3.570312 2.78125 -3.003906 2.78125 -2.390625 C 2.78125 -2.128906 2.8125 -1.925781 2.875 -1.78125 C 2.9375 -1.644531 3.023438 -1.578125 3.140625 -1.578125 C 3.296875 -1.578125 3.515625 -1.734375 3.796875 -2.046875 C 4.078125 -2.359375 4.382812 -2.773438 4.71875 -3.296875 C 5.0625 -3.828125 5.390625 -4.410156 5.703125 -5.046875 C 6.023438 -5.679688 6.285156 -6.3125 6.484375 -6.9375 L 6.765625 -7.15625 L 7.390625 -7.71875 L 8.890625 -7.71875 C 8.703125 -7.144531 8.515625 -6.539062 8.328125 -5.90625 C 8.140625 -5.269531 7.972656 -4.65625 7.828125 -4.0625 C 7.691406 -3.46875 7.578125 -2.9375 7.484375 -2.46875 C 7.390625 -2.007812 7.34375 -1.65625 7.34375 -1.40625 C 7.582031 -1.550781 7.816406 -1.734375 8.046875 -1.953125 C 8.273438 -2.179688 8.503906 -2.445312 8.734375 -2.75 L 9.28125 -2.125 C 8.988281 -1.71875 8.65625 -1.335938 8.28125 -0.984375 C 7.90625 -0.640625 7.519531 -0.363281 7.125 -0.15625 C 6.738281 0.0390625 6.367188 0.140625 6.015625 0.140625 C 5.734375 0.140625 5.507812 0.0546875 5.34375 -0.109375 C 5.1875 -0.273438 5.109375 -0.507812 5.109375 -0.8125 C 5.109375 -1 5.144531 -1.269531 5.21875 -1.625 C 5.289062 -1.976562 5.40625 -2.441406 5.5625 -3.015625 C 5.71875 -3.585938 5.921875 -4.28125 6.171875 -5.09375 L 6.328125 -5.09375 C 5.960938 -4.019531 5.539062 -3.09375 5.0625 -2.3125 C 4.59375 -1.53125 4.101562 -0.925781 3.59375 -0.5 C 3.082031 -0.0703125 2.566406 0.140625 2.046875 0.140625 Z M 2.046875 0.140625 "/></g></g></g><g fill="#3d3b3a" fill-opacity="1"><g transform="translate(181.126301, 180.599974)"><g><path d="M 1.5625 0.140625 C 1.238281 0.140625 0.988281 0.0546875 0.8125 -0.109375 C 0.632812 -0.273438 0.546875 -0.515625 0.546875 -0.828125 C 0.546875 -0.992188 0.554688 -1.15625 0.578125 -1.3125 C 0.597656 -1.476562 0.644531 -1.726562 0.71875 -2.0625 C 0.800781 -2.40625 0.925781 -2.914062 1.09375 -3.59375 L 2.828125 -10.515625 L 1.5625 -10.6875 L 1.71875 -11.390625 L 5.15625 -12.25 L 5.578125 -11.953125 C 5.359375 -11.234375 5.171875 -10.582031 5.015625 -10 C 4.859375 -9.425781 4.71875 -8.894531 4.59375 -8.40625 L 3.328125 -3.5625 C 3.242188 -3.226562 3.164062 -2.914062 3.09375 -2.625 C 3.03125 -2.34375 2.984375 -2.09375 2.953125 -1.875 C 2.929688 -1.664062 2.921875 -1.507812 2.921875 -1.40625 C 3.140625 -1.550781 3.363281 -1.734375 3.59375 -1.953125 C 3.820312 -2.179688 4.054688 -2.445312 4.296875 -2.75 L 4.828125 -2.125 C 4.535156 -1.71875 4.203125 -1.335938 3.828125 -0.984375 C 3.453125 -0.640625 3.066406 -0.363281 2.671875 -0.15625 C 2.285156 0.0390625 1.914062 0.140625 1.5625 0.140625 Z M 1.5625 0.140625 "/></g></g></g><g fill="#3d3b3a" fill-opacity="1"><g transform="translate(189.78549, 180.599974)"><g/></g></g><g fill="#3d3b3a" fill-opacity="1"><g transform="translate(196.846111, 180.599974)"><g><path d="M 3.359375 0.140625 C 2.460938 0.140625 1.753906 -0.109375 1.234375 -0.609375 C 0.710938 -1.109375 0.453125 -1.785156 0.453125 -2.640625 C 0.453125 -3.335938 0.578125 -4 0.828125 -4.625 C 1.085938 -5.257812 1.429688 -5.816406 1.859375 -6.296875 C 2.296875 -6.785156 2.800781 -7.164062 3.375 -7.4375 C 3.945312 -7.71875 4.550781 -7.859375 5.1875 -7.859375 C 5.863281 -7.859375 6.378906 -7.71875 6.734375 -7.4375 C 7.085938 -7.164062 7.265625 -6.8125 7.265625 -6.375 C 7.265625 -6.132812 7.195312 -5.878906 7.0625 -5.609375 C 6.925781 -5.335938 6.6875 -5.054688 6.34375 -4.765625 C 6.007812 -4.484375 5.535156 -4.179688 4.921875 -3.859375 C 4.316406 -3.535156 3.53125 -3.203125 2.5625 -2.859375 L 2.5625 -3.796875 C 3.207031 -4.054688 3.71875 -4.320312 4.09375 -4.59375 C 4.46875 -4.863281 4.726562 -5.140625 4.875 -5.421875 C 5.03125 -5.703125 5.109375 -5.988281 5.109375 -6.28125 C 5.109375 -6.46875 5.054688 -6.613281 4.953125 -6.71875 C 4.847656 -6.832031 4.710938 -6.890625 4.546875 -6.890625 C 4.285156 -6.890625 4.019531 -6.726562 3.75 -6.40625 C 3.476562 -6.09375 3.253906 -5.65625 3.078125 -5.09375 C 2.898438 -4.53125 2.8125 -3.875 2.8125 -3.125 C 2.8125 -2.570312 2.925781 -2.160156 3.15625 -1.890625 C 3.394531 -1.628906 3.707031 -1.5 4.09375 -1.5 C 4.382812 -1.5 4.738281 -1.582031 5.15625 -1.75 C 5.582031 -1.925781 5.988281 -2.25 6.375 -2.71875 L 6.90625 -1.9375 C 6.382812 -1.21875 5.800781 -0.691406 5.15625 -0.359375 C 4.507812 -0.0234375 3.910156 0.140625 3.359375 0.140625 Z M 3.359375 0.140625 "/></g></g></g><g fill="#3d3b3a" fill-opacity="1"><g transform="translate(207.859235, 180.599974)"><g><path d="M 2.390625 0.140625 C 1.898438 0.140625 1.46875 0.0703125 1.09375 -0.0625 C 0.726562 -0.207031 0.445312 -0.394531 0.25 -0.625 C 0.0507812 -0.851562 -0.046875 -1.097656 -0.046875 -1.359375 C -0.046875 -1.578125 0 -1.785156 0.09375 -1.984375 C 0.195312 -2.179688 0.320312 -2.359375 0.46875 -2.515625 C 0.84375 -2.066406 1.25 -1.695312 1.6875 -1.40625 C 2.132812 -1.125 2.515625 -0.984375 2.828125 -0.984375 C 3.066406 -0.984375 3.257812 -1.039062 3.40625 -1.15625 C 3.5625 -1.28125 3.640625 -1.46875 3.640625 -1.71875 C 3.640625 -1.914062 3.5625 -2.109375 3.40625 -2.296875 C 3.25 -2.484375 2.910156 -2.738281 2.390625 -3.0625 C 2.023438 -3.300781 1.726562 -3.53125 1.5 -3.75 C 1.269531 -3.96875 1.101562 -4.1875 1 -4.40625 C 0.90625 -4.625 0.859375 -4.859375 0.859375 -5.109375 C 0.859375 -5.648438 1.007812 -6.125 1.3125 -6.53125 C 1.613281 -6.945312 2.015625 -7.269531 2.515625 -7.5 C 3.015625 -7.738281 3.566406 -7.859375 4.171875 -7.859375 C 4.578125 -7.859375 4.941406 -7.804688 5.265625 -7.703125 C 5.597656 -7.609375 5.863281 -7.460938 6.0625 -7.265625 C 6.257812 -7.066406 6.359375 -6.8125 6.359375 -6.5 C 6.359375 -6.28125 6.316406 -6.082031 6.234375 -5.90625 C 6.160156 -5.726562 6.050781 -5.570312 5.90625 -5.4375 C 5.507812 -5.914062 5.140625 -6.257812 4.796875 -6.46875 C 4.460938 -6.6875 4.144531 -6.796875 3.84375 -6.796875 C 3.5625 -6.796875 3.335938 -6.71875 3.171875 -6.5625 C 3.015625 -6.414062 2.9375 -6.234375 2.9375 -6.015625 C 2.9375 -5.867188 2.96875 -5.738281 3.03125 -5.625 C 3.101562 -5.507812 3.238281 -5.367188 3.4375 -5.203125 C 3.632812 -5.046875 3.921875 -4.84375 4.296875 -4.59375 C 4.648438 -4.34375 4.929688 -4.113281 5.140625 -3.90625 C 5.359375 -3.707031 5.515625 -3.503906 5.609375 -3.296875 C 5.703125 -3.097656 5.75 -2.878906 5.75 -2.640625 C 5.75 -2.117188 5.597656 -1.644531 5.296875 -1.21875 C 5.003906 -0.800781 4.601562 -0.46875 4.09375 -0.21875 C 3.582031 0.0195312 3.015625 0.140625 2.390625 0.140625 Z M 2.390625 0.140625 "/></g></g></g><g fill="#3d3b3a" fill-opacity="1"><g transform="translate(217.976458, 180.599974)"><g><path d="M 5.84375 -2.234375 C 5.257812 -1.421875 4.65625 -0.820312 4.03125 -0.4375 C 3.414062 -0.0507812 2.800781 0.140625 2.1875 0.140625 C 1.71875 0.140625 1.351562 0.0234375 1.09375 -0.203125 C 0.84375 -0.429688 0.71875 -0.753906 0.71875 -1.171875 C 0.71875 -1.304688 0.734375 -1.460938 0.765625 -1.640625 C 0.796875 -1.816406 0.832031 -2.007812 0.875 -2.21875 L 1.96875 -6.59375 L 0.734375 -6.59375 L 0.859375 -7.140625 L 4.359375 -9.515625 L 4.890625 -9.515625 L 4.25 -7.046875 L 3.21875 -2.671875 C 3.164062 -2.453125 3.128906 -2.285156 3.109375 -2.171875 C 3.085938 -2.066406 3.078125 -1.988281 3.078125 -1.9375 C 3.078125 -1.664062 3.203125 -1.53125 3.453125 -1.53125 C 3.671875 -1.53125 3.925781 -1.632812 4.21875 -1.84375 C 4.507812 -2.050781 4.867188 -2.445312 5.296875 -3.03125 Z M 3.328125 -6.59375 L 3.546875 -7.6875 L 6.375 -7.6875 L 6.15625 -6.59375 Z M 3.328125 -6.59375 "/></g></g></g><g fill="#3d3b3a" fill-opacity="1"><g transform="translate(227.654514, 180.599974)"><g><path d="M 2.046875 0.140625 C 1.535156 0.140625 1.128906 -0.046875 0.828125 -0.421875 C 0.523438 -0.796875 0.375 -1.273438 0.375 -1.859375 C 0.375 -2.691406 0.523438 -3.472656 0.828125 -4.203125 C 1.140625 -4.929688 1.546875 -5.566406 2.046875 -6.109375 C 2.554688 -6.660156 3.113281 -7.09375 3.71875 -7.40625 C 4.320312 -7.71875 4.910156 -7.875 5.484375 -7.875 C 5.847656 -7.875 6.160156 -7.773438 6.421875 -7.578125 C 6.691406 -7.378906 6.957031 -7.101562 7.21875 -6.75 L 6.609375 -6.1875 C 6.421875 -6.363281 6.207031 -6.492188 5.96875 -6.578125 C 5.738281 -6.660156 5.5 -6.703125 5.25 -6.703125 C 4.914062 -6.703125 4.59375 -6.59375 4.28125 -6.375 C 3.976562 -6.15625 3.710938 -5.847656 3.484375 -5.453125 C 3.253906 -5.066406 3.078125 -4.613281 2.953125 -4.09375 C 2.835938 -3.570312 2.78125 -3.003906 2.78125 -2.390625 C 2.78125 -2.128906 2.8125 -1.925781 2.875 -1.78125 C 2.9375 -1.644531 3.023438 -1.578125 3.140625 -1.578125 C 3.296875 -1.578125 3.515625 -1.734375 3.796875 -2.046875 C 4.078125 -2.359375 4.382812 -2.773438 4.71875 -3.296875 C 5.0625 -3.828125 5.390625 -4.410156 5.703125 -5.046875 C 6.023438 -5.679688 6.285156 -6.3125 6.484375 -6.9375 L 6.765625 -7.15625 L 7.390625 -7.71875 L 8.890625 -7.71875 C 8.703125 -7.144531 8.515625 -6.539062 8.328125 -5.90625 C 8.140625 -5.269531 7.972656 -4.65625 7.828125 -4.0625 C 7.691406 -3.46875 7.578125 -2.9375 7.484375 -2.46875 C 7.390625 -2.007812 7.34375 -1.65625 7.34375 -1.40625 C 7.582031 -1.550781 7.816406 -1.734375 8.046875 -1.953125 C 8.273438 -2.179688 8.503906 -2.445312 8.734375 -2.75 L 9.28125 -2.125 C 8.988281 -1.71875 8.65625 -1.335938 8.28125 -0.984375 C 7.90625 -0.640625 7.519531 -0.363281 7.125 -0.15625 C 6.738281 0.0390625 6.367188 0.140625 6.015625 0.140625 C 5.734375 0.140625 5.507812 0.0546875 5.34375 -0.109375 C 5.1875 -0.273438 5.109375 -0.507812 5.109375 -0.8125 C 5.109375 -1 5.144531 -1.269531 5.21875 -1.625 C 5.289062 -1.976562 5.40625 -2.441406 5.5625 -3.015625 C 5.71875 -3.585938 5.921875 -4.28125 6.171875 -5.09375 L 6.328125 -5.09375 C 5.960938 -4.019531 5.539062 -3.09375 5.0625 -2.3125 C 4.59375 -1.53125 4.101562 -0.925781 3.59375 -0.5 C 3.082031 -0.0703125 2.566406 0.140625 2.046875 0.140625 Z M 2.046875 0.140625 "/></g></g></g><g fill="#3d3b3a" fill-opacity="1"><g transform="translate(240.722939, 180.599974)"><g><path d="M 5.84375 -2.234375 C 5.257812 -1.421875 4.65625 -0.820312 4.03125 -0.4375 C 3.414062 -0.0507812 2.800781 0.140625 2.1875 0.140625 C 1.71875 0.140625 1.351562 0.0234375 1.09375 -0.203125 C 0.84375 -0.429688 0.71875 -0.753906 0.71875 -1.171875 C 0.71875 -1.304688 0.734375 -1.460938 0.765625 -1.640625 C 0.796875 -1.816406 0.832031 -2.007812 0.875 -2.21875 L 1.96875 -6.59375 L 0.734375 -6.59375 L 0.859375 -7.140625 L 4.359375 -9.515625 L 4.890625 -9.515625 L 4.25 -7.046875 L 3.21875 -2.671875 C 3.164062 -2.453125 3.128906 -2.285156 3.109375 -2.171875 C 3.085938 -2.066406 3.078125 -1.988281 3.078125 -1.9375 C 3.078125 -1.664062 3.203125 -1.53125 3.453125 -1.53125 C 3.671875 -1.53125 3.925781 -1.632812 4.21875 -1.84375 C 4.507812 -2.050781 4.867188 -2.445312 5.296875 -3.03125 Z M 3.328125 -6.59375 L 3.546875 -7.6875 L 6.375 -7.6875 L 6.15625 -6.59375 Z M 3.328125 -6.59375 "/></g></g></g><g fill="#3d3b3a" fill-opacity="1"><g transform="translate(250.400995, 180.599974)"><g><path d="M 3.359375 0.140625 C 2.460938 0.140625 1.753906 -0.109375 1.234375 -0.609375 C 0.710938 -1.109375 0.453125 -1.785156 0.453125 -2.640625 C 0.453125 -3.335938 0.578125 -4 0.828125 -4.625 C 1.085938 -5.257812 1.429688 -5.816406 1.859375 -6.296875 C 2.296875 -6.785156 2.800781 -7.164062 3.375 -7.4375 C 3.945312 -7.71875 4.550781 -7.859375 5.1875 -7.859375 C 5.863281 -7.859375 6.378906 -7.71875 6.734375 -7.4375 C 7.085938 -7.164062 7.265625 -6.8125 7.265625 -6.375 C 7.265625 -6.132812 7.195312 -5.878906 7.0625 -5.609375 C 6.925781 -5.335938 6.6875 -5.054688 6.34375 -4.765625 C 6.007812 -4.484375 5.535156 -4.179688 4.921875 -3.859375 C 4.316406 -3.535156 3.53125 -3.203125 2.5625 -2.859375 L 2.5625 -3.796875 C 3.207031 -4.054688 3.71875 -4.320312 4.09375 -4.59375 C 4.46875 -4.863281 4.726562 -5.140625 4.875 -5.421875 C 5.03125 -5.703125 5.109375 -5.988281 5.109375 -6.28125 C 5.109375 -6.46875 5.054688 -6.613281 4.953125 -6.71875 C 4.847656 -6.832031 4.710938 -6.890625 4.546875 -6.890625 C 4.285156 -6.890625 4.019531 -6.726562 3.75 -6.40625 C 3.476562 -6.09375 3.253906 -5.65625 3.078125 -5.09375 C 2.898438 -4.53125 2.8125 -3.875 2.8125 -3.125 C 2.8125 -2.570312 2.925781 -2.160156 3.15625 -1.890625 C 3.394531 -1.628906 3.707031 -1.5 4.09375 -1.5 C 4.382812 -1.5 4.738281 -1.582031 5.15625 -1.75 C 5.582031 -1.925781 5.988281 -2.25 6.375 -2.71875 L 6.90625 -1.9375 C 6.382812 -1.21875 5.800781 -0.691406 5.15625 -0.359375 C 4.507812 -0.0234375 3.910156 0.140625 3.359375 0.140625 Z M 3.359375 0.140625 "/></g></g></g></svg>